solid Exported from Blender-3.6.5
facet normal -0.249707 0.908476 -0.335139
outer loop
vertex -0.039272 0.066862 -0.243633
vertex 0.130058 0.121082 -0.222820
vertex 0.033647 0.058683 -0.320135
endloop
endfacet
facet normal 0.586633 -0.439478 0.680236
outer loop
vertex 0.135967 -0.275443 0.280272
vertex 0.221056 -0.232483 0.234646
vertex 0.219816 -0.161418 0.281629
endloop
endfacet
facet normal -0.589704 0.807309 -0.022402
outer loop
vertex -0.020370 0.745809 -0.321555
vertex -0.097922 0.690854 -0.260525
vertex -0.036113 0.738398 -0.174218
endloop
endfacet
facet normal -0.119680 0.614556 0.779742
outer loop
vertex -0.191769 0.275806 0.118656
vertex -0.206938 0.144581 0.219753
vertex -0.059931 0.267365 0.145544
endloop
endfacet
facet normal 0.009844 -0.296119 -0.955100
outer loop
vertex -0.039272 0.066862 -0.243633
vertex -0.121033 -0.063682 -0.204001
vertex -0.275623 0.107161 -0.258563
endloop
endfacet
facet normal 0.342204 -0.063684 -0.937465
outer loop
vertex 0.235224 0.049007 -0.245896
vertex 0.307817 -0.031582 -0.213923
vertex 0.033647 0.058683 -0.320135
endloop
endfacet
facet normal -0.886086 -0.454118 0.092887
outer loop
vertex -0.526662 0.197032 0.187419
vertex -0.558761 0.263680 0.207050
vertex -0.557112 0.222628 0.022078
endloop
endfacet
facet normal 0.788098 -0.414182 -0.455361
outer loop
vertex 0.299383 -0.158103 -0.195664
vertex 0.409495 -0.128270 -0.032228
vertex 0.322385 -0.248742 -0.073412
endloop
endfacet
facet normal -0.173166 -0.049879 -0.983629
outer loop
vertex -0.247738 0.698105 -0.496404
vertex -0.148449 0.592609 -0.508534
vertex -0.268781 0.528627 -0.484106
endloop
endfacet
facet normal 0.285974 -0.392467 -0.874179
outer loop
vertex 0.232852 -0.236473 -0.182244
vertex 0.168063 -0.084866 -0.271504
vertex 0.299383 -0.158103 -0.195664
endloop
endfacet
facet normal -0.980850 -0.135533 -0.139868
outer loop
vertex -0.257811 -0.179673 0.146170
vertex -0.230930 -0.276359 0.051354
vertex -0.258164 -0.224275 0.191864
endloop
endfacet
facet normal 0.176412 -0.276667 -0.944634
outer loop
vertex 0.168063 -0.084866 -0.271504
vertex 0.052201 -0.210643 -0.256303
vertex -0.045892 -0.052861 -0.320834
endloop
endfacet
facet normal -0.132961 0.610550 0.780737
outer loop
vertex -0.349691 -0.259939 0.018288
vertex -0.336111 -0.325994 0.072257
vertex -0.230930 -0.276359 0.051354
endloop
endfacet
facet normal -0.266421 0.821543 -0.504071
outer loop
vertex -0.227611 -0.230109 -0.117809
vertex -0.012912 -0.227770 -0.227475
vertex -0.196868 -0.289949 -0.231587
endloop
endfacet
facet normal 0.455603 0.314358 -0.832830
outer loop
vertex -0.283496 0.410777 -0.159838
vertex -0.234966 0.420825 -0.129496
vertex -0.218315 0.306567 -0.163515
endloop
endfacet
facet normal 0.974928 0.162309 0.152224
outer loop
vertex 0.498426 -0.061682 0.041020
vertex 0.488576 -0.121542 0.167927
vertex 0.510787 -0.145791 0.051531
endloop
endfacet
facet normal 0.183934 0.281403 -0.941796
outer loop
vertex -0.169344 0.746603 -0.466603
vertex -0.148449 0.592609 -0.508534
vertex -0.247738 0.698105 -0.496404
endloop
endfacet
facet normal 0.980362 -0.072125 -0.183542
outer loop
vertex -0.283496 0.410777 -0.159838
vertex -0.298235 0.446841 -0.252733
vertex -0.283499 0.513179 -0.200092
endloop
endfacet
facet normal -0.902595 -0.200025 -0.381199
outer loop
vertex -0.570441 0.298688 0.013726
vertex -0.501705 0.248846 -0.122872
vertex -0.557112 0.222628 0.022078
endloop
endfacet
facet normal 0.195215 0.446193 0.873386
outer loop
vertex -0.227567 0.518562 -0.017680
vertex -0.105373 0.589340 -0.081151
vertex -0.261022 0.549996 -0.026261
endloop
endfacet
facet normal -0.214688 0.535244 0.816959
outer loop
vertex -0.132798 -0.306280 0.313941
vertex -0.017016 -0.224638 0.290878
vertex -0.153062 -0.205999 0.242915
endloop
endfacet
facet normal -0.026230 -0.653984 -0.756054
outer loop
vertex -0.042518 0.566969 -0.262587
vertex 0.032090 0.555274 -0.255059
vertex -0.234966 0.420825 -0.129496
endloop
endfacet
facet normal 0.348472 0.072929 -0.934478
outer loop
vertex 0.260688 0.261378 -0.175430
vertex 0.350879 0.136937 -0.151509
vertex 0.246601 0.159801 -0.188610
endloop
endfacet
facet normal 0.701809 -0.124118 0.701469
outer loop
vertex 0.440059 0.021822 0.145923
vertex 0.311234 -0.207637 0.234210
vertex 0.420813 -0.074951 0.148055
endloop
endfacet
facet normal 0.951110 -0.155653 -0.266762
outer loop
vertex 0.050415 0.729260 -0.291243
vertex 0.032090 0.555274 -0.255059
vertex 0.022090 0.679155 -0.362996
endloop
endfacet
facet normal 0.431071 0.802721 0.412088
outer loop
vertex 0.420813 -0.074951 0.148055
vertex 0.488576 -0.121542 0.167927
vertex 0.498426 -0.061682 0.041020
endloop
endfacet
facet normal 0.468528 0.256582 0.845368
outer loop
vertex 0.219980 0.124959 0.297452
vertex 0.386936 0.136593 0.201389
vertex 0.292738 0.223356 0.227262
endloop
endfacet
facet normal 0.998573 0.051772 -0.013122
outer loop
vertex 0.429871 0.172626 -0.034398
vertex 0.440059 0.021822 0.145923
vertex 0.442896 -0.060669 0.036364
endloop
endfacet
facet normal -0.877392 0.084753 0.472229
outer loop
vertex -0.536659 0.085884 0.035584
vertex -0.487739 0.034003 0.135788
vertex -0.484493 0.173194 0.116838
endloop
endfacet
facet normal 0.303974 0.935612 -0.179527
outer loop
vertex 0.155978 0.373956 0.050942
vertex 0.306153 0.316193 0.004182
vertex 0.176415 0.343794 -0.071646
endloop
endfacet
facet normal -0.877422 -0.461956 0.129336
outer loop
vertex -0.492360 -0.015810 -0.068389
vertex -0.402898 -0.140180 0.094309
vertex -0.432622 -0.067214 0.153275
endloop
endfacet
facet normal 0.701609 0.394427 -0.593442
outer loop
vertex 0.260688 0.261378 -0.175430
vertex 0.429871 0.172626 -0.034398
vertex 0.350879 0.136937 -0.151509
endloop
endfacet
facet normal 0.868830 0.119399 -0.480498
outer loop
vertex -0.199694 0.437124 -0.061669
vertex -0.162724 0.336539 -0.019814
vertex -0.234966 0.420825 -0.129496
endloop
endfacet
facet normal -0.886002 -0.186515 -0.424515
outer loop
vertex -0.402505 0.449747 -0.170355
vertex -0.268781 0.528627 -0.484106
vertex -0.285560 0.462756 -0.420146
endloop
endfacet
facet normal -0.465577 -0.639220 -0.612075
outer loop
vertex -0.505170 0.167025 -0.034786
vertex -0.501705 0.248846 -0.122872
vertex -0.386168 0.207835 -0.167926
endloop
endfacet
facet normal -0.433103 0.292118 -0.852695
outer loop
vertex -0.275623 0.107161 -0.258563
vertex -0.413467 0.070482 -0.201115
vertex -0.386168 0.207835 -0.167926
endloop
endfacet
facet normal 0.230175 -0.894308 -0.383710
outer loop
vertex -0.298235 0.446841 -0.252733
vertex -0.283496 0.410777 -0.159838
vertex -0.357190 0.400952 -0.181146
endloop
endfacet
facet normal -0.277617 0.787164 -0.550729
outer loop
vertex -0.312738 0.723581 -0.427225
vertex -0.169344 0.746603 -0.466603
vertex -0.247738 0.698105 -0.496404
endloop
endfacet
facet normal -0.505976 0.715166 0.482208
outer loop
vertex -0.357363 0.524463 -0.089481
vertex -0.261022 0.549996 -0.026261
vertex -0.234745 0.622714 -0.106537
endloop
endfacet
facet normal -0.057314 0.952981 -0.297561
outer loop
vertex -0.373596 0.558870 0.023842
vertex -0.261022 0.549996 -0.026261
vertex -0.357363 0.524463 -0.089481
endloop
endfacet
facet normal -0.151618 0.967994 -0.200000
outer loop
vertex -0.283499 0.513179 -0.200092
vertex -0.357363 0.524463 -0.089481
vertex -0.267680 0.527903 -0.140819
endloop
endfacet
facet normal -0.398437 0.911404 0.102907
outer loop
vertex -0.547479 0.485261 0.002527
vertex -0.472716 0.505527 0.112509
vertex -0.373596 0.558870 0.023842
endloop
endfacet
facet normal -0.919022 0.394038 -0.011529
outer loop
vertex -0.570441 0.298688 0.013726
vertex -0.531725 0.394095 0.188353
vertex -0.524959 0.403086 -0.043654
endloop
endfacet
facet normal 0.979703 -0.006074 -0.200362
outer loop
vertex 0.429871 0.172626 -0.034398
vertex 0.442896 -0.060669 0.036364
vertex 0.410233 0.035896 -0.126278
endloop
endfacet
facet normal -0.076045 0.865600 0.494929
outer loop
vertex -0.295238 0.506854 0.137457
vertex -0.472716 0.505527 0.112509
vertex -0.399263 0.452171 0.217111
endloop
endfacet
facet normal 0.587664 -0.593126 -0.550320
outer loop
vertex 0.299383 -0.158103 -0.195664
vertex 0.322385 -0.248742 -0.073412
vertex 0.232852 -0.236473 -0.182244
endloop
endfacet
facet normal -0.612968 -0.444403 -0.653282
outer loop
vertex -0.492360 -0.015810 -0.068389
vertex -0.413467 0.070482 -0.201115
vertex -0.407077 -0.128684 -0.071625
endloop
endfacet
facet normal -0.257314 0.475055 -0.841494
outer loop
vertex -0.218315 0.306567 -0.163515
vertex -0.275623 0.107161 -0.258563
vertex -0.386168 0.207835 -0.167926
endloop
endfacet
facet normal -0.690508 -0.138534 0.709935
outer loop
vertex -0.168579 -0.089517 0.250553
vertex -0.257811 -0.179673 0.146170
vertex -0.153062 -0.205999 0.242915
endloop
endfacet
facet normal -0.940316 0.121387 -0.317917
outer loop
vertex -0.242491 -0.325784 -0.110329
vertex -0.227611 -0.230109 -0.117809
vertex -0.196868 -0.289949 -0.231587
endloop
endfacet
facet normal 0.000919 -0.999998 0.001832
outer loop
vertex 0.216778 -0.325014 -0.186469
vertex 0.217692 -0.324771 -0.053911
vertex -0.107584 -0.325415 -0.242065
endloop
endfacet
facet normal -0.916661 0.009213 -0.399559
outer loop
vertex -0.505170 0.167025 -0.034786
vertex -0.492360 -0.015810 -0.068389
vertex -0.536659 0.085884 0.035584
endloop
endfacet
facet normal 0.389583 0.848720 -0.357629
outer loop
vertex 0.176415 0.343794 -0.071646
vertex 0.306153 0.316193 0.004182
vertex 0.260688 0.261378 -0.175430
endloop
endfacet
facet normal -0.422571 0.652153 0.629388
outer loop
vertex -0.399263 0.452171 0.217111
vertex -0.472716 0.505527 0.112509
vertex -0.531725 0.394095 0.188353
endloop
endfacet
facet normal -0.358141 0.910173 0.208137
outer loop
vertex 0.147264 0.341847 0.176359
vertex 0.155978 0.373956 0.050942
vertex -0.059931 0.267365 0.145544
endloop
endfacet
facet normal 0.967528 -0.092451 -0.235251
outer loop
vertex -0.267680 0.527903 -0.140819
vertex -0.283496 0.410777 -0.159838
vertex -0.283499 0.513179 -0.200092
endloop
endfacet
facet normal 0.230997 0.609428 0.758444
outer loop
vertex 0.093970 0.264983 0.254353
vertex 0.292738 0.223356 0.227262
vertex 0.147264 0.341847 0.176359
endloop
endfacet
facet normal 0.000772 -0.999997 0.002087
outer loop
vertex -0.107584 -0.325415 -0.242065
vertex 0.217692 -0.324771 -0.053911
vertex -0.396070 -0.324775 0.171085
endloop
endfacet
facet normal -0.672426 0.210920 -0.709476
outer loop
vertex -0.247738 0.698105 -0.496404
vertex -0.376164 0.656269 -0.387123
vertex -0.312738 0.723581 -0.427225
endloop
endfacet
facet normal 0.082632 0.121617 -0.989132
outer loop
vertex -0.005034 0.217086 -0.222302
vertex 0.130058 0.121082 -0.222820
vertex -0.039272 0.066862 -0.243633
endloop
endfacet
facet normal -0.477392 -0.191899 -0.857480
outer loop
vertex -0.121033 -0.063682 -0.204001
vertex -0.012912 -0.227770 -0.227475
vertex -0.269149 -0.162837 -0.099349
endloop
endfacet
facet normal -0.642782 0.218581 0.734203
outer loop
vertex -0.378660 0.174597 0.189429
vertex -0.487739 0.034003 0.135788
vertex -0.348475 0.068006 0.247588
endloop
endfacet
facet normal -0.433099 -0.224622 -0.872909
outer loop
vertex -0.267680 0.527903 -0.140819
vertex -0.042518 0.566969 -0.262587
vertex -0.234966 0.420825 -0.129496
endloop
endfacet
facet normal 0.704914 -0.417120 0.573678
outer loop
vertex 0.412237 -0.325725 0.113269
vertex 0.488576 -0.121542 0.167927
vertex 0.341118 -0.325175 0.201058
endloop
endfacet
facet normal 0.653451 0.661836 -0.367388
outer loop
vertex 0.429871 0.172626 -0.034398
vertex 0.260688 0.261378 -0.175430
vertex 0.306153 0.316193 0.004182
endloop
endfacet
facet normal 0.383511 0.392790 -0.835844
outer loop
vertex 0.246601 0.159801 -0.188610
vertex 0.350879 0.136937 -0.151509
vertex 0.235224 0.049007 -0.245896
endloop
endfacet
facet normal -0.187196 -0.977511 -0.097109
outer loop
vertex -0.385883 -0.302227 -0.071044
vertex -0.242491 -0.325784 -0.110329
vertex -0.336111 -0.325994 0.072257
endloop
endfacet
facet normal -0.041105 0.186525 -0.981590
outer loop
vertex -0.107584 -0.325415 -0.242065
vertex -0.196868 -0.289949 -0.231587
vertex -0.012912 -0.227770 -0.227475
endloop
endfacet
facet normal 0.983951 -0.178322 -0.006454
outer loop
vertex 0.216778 -0.325014 -0.186469
vertex 0.232852 -0.236473 -0.182244
vertex 0.217692 -0.324771 -0.053911
endloop
endfacet
facet normal -0.356311 0.775659 0.520956
outer loop
vertex 0.093970 0.264983 0.254353
vertex 0.147264 0.341847 0.176359
vertex -0.059931 0.267365 0.145544
endloop
endfacet
facet normal 0.759269 0.650634 0.013629
outer loop
vertex 0.429871 0.172626 -0.034398
vertex 0.306153 0.316193 0.004182
vertex 0.346025 0.266792 0.141292
endloop
endfacet
facet normal 0.366202 -0.088999 0.926270
outer loop
vertex 0.095591 -0.073939 0.357715
vertex 0.297315 -0.004706 0.284616
vertex 0.160536 0.041190 0.343101
endloop
endfacet
facet normal -0.075965 0.085205 0.993463
outer loop
vertex -0.054301 0.040157 0.341207
vertex -0.019733 -0.107390 0.356505
vertex 0.063442 0.083650 0.346480
endloop
endfacet
facet normal -0.622715 0.448065 -0.641454
outer loop
vertex 0.033647 0.058683 -0.320135
vertex -0.045892 -0.052861 -0.320834
vertex -0.039272 0.066862 -0.243633
endloop
endfacet
facet normal -0.867759 0.030373 -0.496056
outer loop
vertex -0.505170 0.167025 -0.034786
vertex -0.413467 0.070482 -0.201115
vertex -0.492360 -0.015810 -0.068389
endloop
endfacet
facet normal -0.240987 -0.491975 -0.836591
outer loop
vertex -0.012912 -0.227770 -0.227475
vertex -0.045892 -0.052861 -0.320834
vertex 0.052201 -0.210643 -0.256303
endloop
endfacet
facet normal -0.157620 0.952485 -0.260631
outer loop
vertex -0.039173 0.308491 -0.070284
vertex 0.155978 0.373956 0.050942
vertex 0.176415 0.343794 -0.071646
endloop
endfacet
facet normal -0.893436 0.436970 0.104061
outer loop
vertex -0.536659 0.085884 0.035584
vertex -0.484493 0.173194 0.116838
vertex -0.505170 0.167025 -0.034786
endloop
endfacet
facet normal -0.746178 -0.417488 -0.518577
outer loop
vertex -0.045892 -0.052861 -0.320834
vertex -0.012912 -0.227770 -0.227475
vertex -0.121033 -0.063682 -0.204001
endloop
endfacet
facet normal 0.421307 0.657050 -0.625129
outer loop
vertex -0.020370 0.745809 -0.321555
vertex 0.050415 0.729260 -0.291243
vertex 0.022090 0.679155 -0.362996
endloop
endfacet
facet normal -0.379066 -0.838919 -0.390544
outer loop
vertex -0.196868 -0.289949 -0.231587
vertex -0.107584 -0.325415 -0.242065
vertex -0.242491 -0.325784 -0.110329
endloop
endfacet
facet normal -0.762522 0.145319 -0.630431
outer loop
vertex -0.424708 0.500513 -0.142453
vertex -0.524959 0.403086 -0.043654
vertex -0.547479 0.485261 0.002527
endloop
endfacet
facet normal -0.580964 0.717910 0.383519
outer loop
vertex -0.317825 -0.298176 0.239823
vertex -0.258164 -0.224275 0.191864
vertex -0.396070 -0.324775 0.171085
endloop
endfacet
facet normal -0.904422 -0.183985 -0.384929
outer loop
vertex -0.374001 0.566165 -0.292971
vertex -0.402505 0.449747 -0.170355
vertex -0.424708 0.500513 -0.142453
endloop
endfacet
facet normal -0.979307 0.195551 -0.052132
outer loop
vertex -0.558761 0.263680 0.207050
vertex -0.531725 0.394095 0.188353
vertex -0.557112 0.222628 0.022078
endloop
endfacet
facet normal -0.032463 0.612328 0.789937
outer loop
vertex -0.378660 0.174597 0.189429
vertex -0.206938 0.144581 0.219753
vertex -0.191769 0.275806 0.118656
endloop
endfacet
facet normal -0.233380 0.757457 0.609748
outer loop
vertex -0.261022 0.549996 -0.026261
vertex -0.036113 0.738398 -0.174218
vertex -0.234745 0.622714 -0.106537
endloop
endfacet
facet normal -0.407118 0.578612 0.706727
outer loop
vertex -0.531725 0.394095 0.188353
vertex -0.476373 0.330277 0.272488
vertex -0.399263 0.452171 0.217111
endloop
endfacet
facet normal 0.290235 0.648724 -0.703506
outer loop
vertex 0.235224 0.049007 -0.245896
vertex 0.033647 0.058683 -0.320135
vertex 0.130058 0.121082 -0.222820
endloop
endfacet
facet normal 0.249340 0.189468 -0.949701
outer loop
vertex -0.357190 0.400952 -0.181146
vertex -0.283496 0.410777 -0.159838
vertex -0.218315 0.306567 -0.163515
endloop
endfacet
facet normal -0.936807 0.084734 0.339431
outer loop
vertex -0.336111 -0.325994 0.072257
vertex -0.349691 -0.259939 0.018288
vertex -0.385883 -0.302227 -0.071044
endloop
endfacet
facet normal 0.786147 -0.481804 0.387089
outer loop
vertex -0.283499 0.513179 -0.200092
vertex -0.298235 0.446841 -0.252733
vertex -0.136689 0.557678 -0.442862
endloop
endfacet
facet normal -0.219698 0.470498 -0.854613
outer loop
vertex -0.218315 0.306567 -0.163515
vertex -0.157804 0.245813 -0.212518
vertex -0.275623 0.107161 -0.258563
endloop
endfacet
facet normal -0.454852 0.843270 -0.286366
outer loop
vertex -0.396070 -0.324775 0.171085
vertex -0.230930 -0.276359 0.051354
vertex -0.336111 -0.325994 0.072257
endloop
endfacet
facet normal -0.135192 0.803197 -0.580170
outer loop
vertex 0.104509 0.258739 -0.172642
vertex -0.039173 0.308491 -0.070284
vertex 0.176415 0.343794 -0.071646
endloop
endfacet
facet normal 0.849227 -0.242348 0.469128
outer loop
vertex -0.136689 0.557678 -0.442862
vertex -0.119135 0.663734 -0.419851
vertex -0.283499 0.513179 -0.200092
endloop
endfacet
facet normal 0.685933 0.231708 0.689788
outer loop
vertex -0.278389 0.424067 0.113438
vertex -0.389724 0.249505 0.282789
vertex -0.316534 0.271512 0.202615
endloop
endfacet
facet normal 0.812319 0.451953 0.368614
outer loop
vertex -0.199694 0.437124 -0.061669
vertex -0.191769 0.275806 0.118656
vertex -0.162724 0.336539 -0.019814
endloop
endfacet
facet normal -0.728272 0.056842 -0.682926
outer loop
vertex -0.424708 0.500513 -0.142453
vertex -0.402505 0.449747 -0.170355
vertex -0.524959 0.403086 -0.043654
endloop
endfacet
facet normal 0.695938 0.426914 0.577421
outer loop
vertex -0.278389 0.424067 0.113438
vertex -0.191769 0.275806 0.118656
vertex -0.227567 0.518562 -0.017680
endloop
endfacet
facet normal 0.089285 -0.341674 0.935568
outer loop
vertex -0.019733 -0.107390 0.356505
vertex 0.135967 -0.275443 0.280272
vertex 0.095591 -0.073939 0.357715
endloop
endfacet
facet normal -0.837250 -0.383832 -0.389468
outer loop
vertex -0.501705 0.248846 -0.122872
vertex -0.505170 0.167025 -0.034786
vertex -0.557112 0.222628 0.022078
endloop
endfacet
facet normal 0.749381 0.291782 -0.594383
outer loop
vertex 0.429871 0.172626 -0.034398
vertex 0.410233 0.035896 -0.126278
vertex 0.350879 0.136937 -0.151509
endloop
endfacet
facet normal -0.000621 -0.999998 0.001934
outer loop
vertex 0.341118 -0.325175 0.201058
vertex -0.396070 -0.324775 0.171085
vertex 0.373174 -0.325585 -0.000647
endloop
endfacet
facet normal 0.264748 -0.565006 -0.781458
outer loop
vertex 0.217692 -0.324771 -0.053911
vertex 0.322385 -0.248742 -0.073412
vertex 0.373174 -0.325585 -0.000647
endloop
endfacet
facet normal 0.698794 -0.022086 0.714982
outer loop
vertex 0.386936 0.136593 0.201389
vertex 0.297315 -0.004706 0.284616
vertex 0.440059 0.021822 0.145923
endloop
endfacet
facet normal -0.075547 0.461032 0.884162
outer loop
vertex -0.206938 0.144581 0.219753
vertex -0.378660 0.174597 0.189429
vertex -0.348475 0.068006 0.247588
endloop
endfacet
facet normal 0.083196 0.121484 -0.989101
outer loop
vertex -0.275623 0.107161 -0.258563
vertex -0.005034 0.217086 -0.222302
vertex -0.039272 0.066862 -0.243633
endloop
endfacet
facet normal -0.470511 0.564900 0.677869
outer loop
vertex -0.059931 0.267365 0.145544
vertex -0.096049 0.100420 0.259598
vertex 0.093970 0.264983 0.254353
endloop
endfacet
facet normal -0.312427 -0.570331 0.759679
outer loop
vertex -0.345800 -0.019255 0.230417
vertex -0.257811 -0.179673 0.146170
vertex -0.168579 -0.089517 0.250553
endloop
endfacet
facet normal -0.442811 -0.183426 -0.877652
outer loop
vertex -0.097922 0.690854 -0.260525
vertex -0.042518 0.566969 -0.262587
vertex -0.267680 0.527903 -0.140819
endloop
endfacet
facet normal -0.032080 0.029134 -0.999061
outer loop
vertex 0.080790 -0.052145 -0.324881
vertex -0.045892 -0.052861 -0.320834
vertex 0.033647 0.058683 -0.320135
endloop
endfacet
facet normal 0.240930 -0.706995 -0.664914
outer loop
vertex -0.148449 0.592609 -0.508534
vertex -0.285560 0.462756 -0.420146
vertex -0.268781 0.528627 -0.484106
endloop
endfacet
facet normal 0.845348 0.244097 -0.475187
outer loop
vertex -0.169344 0.746603 -0.466603
vertex -0.119135 0.663734 -0.419851
vertex -0.148449 0.592609 -0.508534
endloop
endfacet
facet normal -0.252826 0.960888 -0.113014
outer loop
vertex -0.424708 0.500513 -0.142453
vertex -0.547479 0.485261 0.002527
vertex -0.357363 0.524463 -0.089481
endloop
endfacet
facet normal 0.342306 0.450086 -0.824772
outer loop
vertex 0.498426 -0.061682 0.041020
vertex 0.468232 -0.160946 -0.025681
vertex 0.409495 -0.128270 -0.032228
endloop
endfacet
facet normal -0.759510 0.437800 -0.481119
outer loop
vertex -0.234745 0.622714 -0.106537
vertex -0.097922 0.690854 -0.260525
vertex -0.267680 0.527903 -0.140819
endloop
endfacet
facet normal 0.132049 0.509072 0.850534
outer loop
vertex 0.219980 0.124959 0.297452
vertex 0.292738 0.223356 0.227262
vertex 0.063442 0.083650 0.346480
endloop
endfacet
facet normal -0.715926 0.242295 0.654785
outer loop
vertex -0.531725 0.394095 0.188353
vertex -0.558761 0.263680 0.207050
vertex -0.476373 0.330277 0.272488
endloop
endfacet
facet normal 0.369542 -0.200046 0.907425
outer loop
vertex 0.219816 -0.161418 0.281629
vertex 0.311234 -0.207637 0.234210
vertex 0.297315 -0.004706 0.284616
endloop
endfacet
facet normal 0.518972 0.330941 0.788128
outer loop
vertex -0.278389 0.424067 0.113438
vertex -0.316534 0.271512 0.202615
vertex -0.191769 0.275806 0.118656
endloop
endfacet
facet normal 0.207649 0.415067 0.885777
outer loop
vertex 0.292738 0.223356 0.227262
vertex 0.093970 0.264983 0.254353
vertex 0.063442 0.083650 0.346480
endloop
endfacet
facet normal -0.047607 -0.737400 -0.673776
outer loop
vertex 0.032090 0.555274 -0.255059
vertex -0.042518 0.566969 -0.262587
vertex -0.031131 0.657592 -0.362573
endloop
endfacet
facet normal -0.082643 0.845774 -0.527102
outer loop
vertex -0.005034 0.217086 -0.222302
vertex -0.039173 0.308491 -0.070284
vertex 0.104509 0.258739 -0.172642
endloop
endfacet
facet normal -0.477274 0.572357 0.666797
outer loop
vertex 0.093970 0.264983 0.254353
vertex -0.096049 0.100420 0.259598
vertex -0.054301 0.040157 0.341207
endloop
endfacet
facet normal 0.116658 -0.989699 0.082988
outer loop
vertex -0.336111 -0.325994 0.072257
vertex -0.107584 -0.325415 -0.242065
vertex -0.396070 -0.324775 0.171085
endloop
endfacet
facet normal -0.740616 0.215258 -0.636515
outer loop
vertex -0.402505 0.449747 -0.170355
vertex -0.501705 0.248846 -0.122872
vertex -0.524959 0.403086 -0.043654
endloop
endfacet
facet normal -0.599425 -0.172193 0.781690
outer loop
vertex -0.345800 -0.019255 0.230417
vertex -0.348475 0.068006 0.247588
vertex -0.432622 -0.067214 0.153275
endloop
endfacet
facet normal 0.956886 0.236115 0.169173
outer loop
vertex -0.227567 0.518562 -0.017680
vertex -0.191769 0.275806 0.118656
vertex -0.199694 0.437124 -0.061669
endloop
endfacet
facet normal 0.007326 0.991714 0.128254
outer loop
vertex 0.420813 -0.074951 0.148055
vertex 0.498426 -0.061682 0.041020
vertex 0.442896 -0.060669 0.036364
endloop
endfacet
facet normal 0.868324 0.066188 -0.491562
outer loop
vertex 0.498426 -0.061682 0.041020
vertex 0.510787 -0.145791 0.051531
vertex 0.468232 -0.160946 -0.025681
endloop
endfacet
facet normal -0.765411 0.264343 0.586745
outer loop
vertex -0.096049 0.100420 0.259598
vertex -0.168579 -0.089517 0.250553
vertex -0.054301 0.040157 0.341207
endloop
endfacet
facet normal 0.231550 0.855808 -0.462576
outer loop
vertex -0.039173 0.308491 -0.070284
vertex -0.005034 0.217086 -0.222302
vertex -0.218315 0.306567 -0.163515
endloop
endfacet
facet normal -0.000346 -0.999988 -0.004828
outer loop
vertex 0.133160 -0.325413 0.265240
vertex -0.396070 -0.324775 0.171085
vertex 0.341118 -0.325175 0.201058
endloop
endfacet
facet normal 0.031267 -0.747280 -0.663773
outer loop
vertex -0.310407 -0.054086 -0.223726
vertex -0.121033 -0.063682 -0.204001
vertex -0.269149 -0.162837 -0.099349
endloop
endfacet
facet normal -0.311119 0.073684 0.947510
outer loop
vertex -0.168579 -0.089517 0.250553
vertex -0.096049 0.100420 0.259598
vertex -0.206938 0.144581 0.219753
endloop
endfacet
facet normal -0.269181 -0.033385 -0.962511
outer loop
vertex -0.242491 -0.325784 -0.110329
vertex -0.385883 -0.302227 -0.071044
vertex -0.227611 -0.230109 -0.117809
endloop
endfacet
facet normal -0.116670 0.241232 0.963429
outer loop
vertex 0.341118 -0.325175 0.201058
vertex 0.488576 -0.121542 0.167927
vertex 0.420813 -0.074951 0.148055
endloop
endfacet
facet normal -0.011399 -0.860702 -0.508982
outer loop
vertex 0.080790 -0.052145 -0.324881
vertex 0.168063 -0.084866 -0.271504
vertex -0.045892 -0.052861 -0.320834
endloop
endfacet
facet normal -0.524166 0.846734 -0.091053
outer loop
vertex -0.097922 0.690854 -0.260525
vertex -0.234745 0.622714 -0.106537
vertex -0.036113 0.738398 -0.174218
endloop
endfacet
facet normal 0.198410 0.977589 0.070375
outer loop
vertex 0.050415 0.729260 -0.291243
vertex -0.020370 0.745809 -0.321555
vertex -0.036113 0.738398 -0.174218
endloop
endfacet
facet normal -0.259199 -0.027197 -0.965441
outer loop
vertex -0.357190 0.400952 -0.181146
vertex -0.386168 0.207835 -0.167926
vertex -0.402505 0.449747 -0.170355
endloop
endfacet
facet normal -0.435380 -0.361937 0.824285
outer loop
vertex -0.526662 0.197032 0.187419
vertex -0.389724 0.249505 0.282789
vertex -0.476373 0.330277 0.272488
endloop
endfacet
facet normal -0.182358 0.432748 -0.882879
outer loop
vertex -0.020370 0.745809 -0.321555
vertex 0.022090 0.679155 -0.362996
vertex -0.031131 0.657592 -0.362573
endloop
endfacet
facet normal -0.583292 -0.052620 0.810557
outer loop
vertex -0.019733 -0.107390 0.356505
vertex -0.054301 0.040157 0.341207
vertex -0.168579 -0.089517 0.250553
endloop
endfacet
facet normal 0.662814 0.258889 0.702605
outer loop
vertex -0.278389 0.424067 0.113438
vertex -0.399263 0.452171 0.217111
vertex -0.389724 0.249505 0.282789
endloop
endfacet
facet normal -0.459041 0.438782 -0.772497
outer loop
vertex -0.234745 0.622714 -0.106537
vertex -0.267680 0.527903 -0.140819
vertex -0.357363 0.524463 -0.089481
endloop
endfacet
facet normal 0.941581 -0.170592 -0.290386
outer loop
vertex 0.410233 0.035896 -0.126278
vertex 0.442896 -0.060669 0.036364
vertex 0.409495 -0.128270 -0.032228
endloop
endfacet
facet normal 0.192067 0.453995 0.870057
outer loop
vertex -0.105373 0.589340 -0.081151
vertex -0.036113 0.738398 -0.174218
vertex -0.261022 0.549996 -0.026261
endloop
endfacet
facet normal 0.072805 0.692390 -0.717841
outer loop
vertex 0.409495 -0.128270 -0.032228
vertex 0.442896 -0.060669 0.036364
vertex 0.498426 -0.061682 0.041020
endloop
endfacet
facet normal 0.181461 0.013976 -0.983299
outer loop
vertex 0.232852 -0.236473 -0.182244
vertex 0.216778 -0.325014 -0.186469
vertex -0.012912 -0.227770 -0.227475
endloop
endfacet
facet normal -0.444492 0.059514 0.893803
outer loop
vertex -0.204565 -0.325429 0.225255
vertex -0.153062 -0.205999 0.242915
vertex -0.258164 -0.224275 0.191864
endloop
endfacet
facet normal 0.882664 -0.397249 0.251192
outer loop
vertex 0.488576 -0.121542 0.167927
vertex 0.412237 -0.325725 0.113269
vertex 0.510787 -0.145791 0.051531
endloop
endfacet
facet normal -0.814464 -0.505588 0.284658
outer loop
vertex -0.257811 -0.179673 0.146170
vertex -0.267344 -0.240014 0.011719
vertex -0.230930 -0.276359 0.051354
endloop
endfacet
facet normal -0.390004 0.910711 0.136024
outer loop
vertex 0.155978 0.373956 0.050942
vertex -0.039173 0.308491 -0.070284
vertex -0.059931 0.267365 0.145544
endloop
endfacet
facet normal -0.027437 -0.972295 0.232144
outer loop
vertex -0.132798 -0.306280 0.313941
vertex -0.204565 -0.325429 0.225255
vertex 0.133160 -0.325413 0.265240
endloop
endfacet
facet normal -0.002703 -0.999969 -0.007392
outer loop
vertex 0.217692 -0.324771 -0.053911
vertex 0.373174 -0.325585 -0.000647
vertex -0.396070 -0.324775 0.171085
endloop
endfacet
facet normal -0.968955 -0.244342 -0.037726
outer loop
vertex -0.547479 0.485261 0.002527
vertex -0.524959 0.403086 -0.043654
vertex -0.531725 0.394095 0.188353
endloop
endfacet
facet normal -0.800843 0.355199 -0.482166
outer loop
vertex -0.039272 0.066862 -0.243633
vertex -0.045892 -0.052861 -0.320834
vertex -0.121033 -0.063682 -0.204001
endloop
endfacet
facet normal -0.541560 -0.342712 -0.767633
outer loop
vertex -0.376164 0.656269 -0.387123
vertex -0.247738 0.698105 -0.496404
vertex -0.298844 0.562296 -0.399717
endloop
endfacet
facet normal -0.336420 0.886614 -0.317391
outer loop
vertex -0.547479 0.485261 0.002527
vertex -0.373596 0.558870 0.023842
vertex -0.357363 0.524463 -0.089481
endloop
endfacet
facet normal -0.065647 0.572532 0.817250
outer loop
vertex -0.206938 0.144581 0.219753
vertex -0.096049 0.100420 0.259598
vertex -0.059931 0.267365 0.145544
endloop
endfacet
facet normal 0.187784 0.269340 -0.944560
outer loop
vertex -0.005034 0.217086 -0.222302
vertex 0.246601 0.159801 -0.188610
vertex 0.130058 0.121082 -0.222820
endloop
endfacet
facet normal 0.074260 0.719160 0.690865
outer loop
vertex -0.225461 0.636633 -0.346097
vertex -0.169344 0.746603 -0.466603
vertex -0.312738 0.723581 -0.427225
endloop
endfacet
facet normal -0.028738 -0.286465 0.957660
outer loop
vertex 0.133160 -0.325413 0.265240
vertex 0.135967 -0.275443 0.280272
vertex -0.017016 -0.224638 0.290878
endloop
endfacet
facet normal -0.420258 0.650961 0.632165
outer loop
vertex -0.153062 -0.205999 0.242915
vertex -0.257811 -0.179673 0.146170
vertex -0.258164 -0.224275 0.191864
endloop
endfacet
facet normal -0.246780 0.910738 -0.331143
outer loop
vertex -0.385883 -0.302227 -0.071044
vertex -0.349691 -0.259939 0.018288
vertex -0.267344 -0.240014 0.011719
endloop
endfacet
facet normal 0.635672 -0.092968 0.766341
outer loop
vertex -0.399263 0.452171 0.217111
vertex -0.278389 0.424067 0.113438
vertex -0.295238 0.506854 0.137457
endloop
endfacet
facet normal 0.426800 -0.156978 -0.890618
outer loop
vertex 0.307817 -0.031582 -0.213923
vertex 0.299383 -0.158103 -0.195664
vertex 0.168063 -0.084866 -0.271504
endloop
endfacet
facet normal 0.071985 0.085532 0.993731
outer loop
vertex 0.063442 0.083650 0.346480
vertex 0.095591 -0.073939 0.357715
vertex 0.160536 0.041190 0.343101
endloop
endfacet
facet normal -0.212257 0.470798 0.856327
outer loop
vertex 0.093970 0.264983 0.254353
vertex -0.054301 0.040157 0.341207
vertex 0.063442 0.083650 0.346480
endloop
endfacet
facet normal -0.019909 0.131370 -0.991133
outer loop
vertex 0.260688 0.261378 -0.175430
vertex 0.246601 0.159801 -0.188610
vertex 0.104509 0.258739 -0.172642
endloop
endfacet
facet normal -0.653475 -0.427224 -0.624860
outer loop
vertex -0.310407 -0.054086 -0.223726
vertex -0.407077 -0.128684 -0.071625
vertex -0.413467 0.070482 -0.201115
endloop
endfacet
facet normal 0.181497 0.020338 0.983181
outer loop
vertex -0.132798 -0.306280 0.313941
vertex 0.133160 -0.325413 0.265240
vertex -0.017016 -0.224638 0.290878
endloop
endfacet
facet normal 0.912515 0.068728 0.403228
outer loop
vertex -0.278389 0.424067 0.113438
vertex -0.227567 0.518562 -0.017680
vertex -0.295238 0.506854 0.137457
endloop
endfacet
facet normal -0.708016 -0.518256 -0.479712
outer loop
vertex -0.376164 0.656269 -0.387123
vertex -0.298844 0.562296 -0.399717
vertex -0.374001 0.566165 -0.292971
endloop
endfacet
facet normal 0.003235 -0.999995 0.000506
outer loop
vertex -0.242491 -0.325784 -0.110329
vertex -0.107584 -0.325415 -0.242065
vertex -0.336111 -0.325994 0.072257
endloop
endfacet
facet normal 0.615002 0.481479 0.624461
outer loop
vertex 0.346025 0.266792 0.141292
vertex 0.292738 0.223356 0.227262
vertex 0.386936 0.136593 0.201389
endloop
endfacet
facet normal -0.186777 -0.195185 0.962817
outer loop
vertex -0.345800 -0.019255 0.230417
vertex -0.168579 -0.089517 0.250553
vertex -0.348475 0.068006 0.247588
endloop
endfacet
facet normal -0.847264 -0.442557 -0.293746
outer loop
vertex -0.269149 -0.162837 -0.099349
vertex -0.227611 -0.230109 -0.117809
vertex -0.267344 -0.240014 0.011719
endloop
endfacet
facet normal 0.294680 0.035660 0.954930
outer loop
vertex 0.221056 -0.232483 0.234646
vertex 0.133160 -0.325413 0.265240
vertex 0.341118 -0.325175 0.201058
endloop
endfacet
facet normal -0.454271 -0.036244 -0.890126
outer loop
vertex -0.227611 -0.230109 -0.117809
vertex -0.269149 -0.162837 -0.099349
vertex -0.012912 -0.227770 -0.227475
endloop
endfacet
facet normal 0.153622 -0.543081 0.825508
outer loop
vertex 0.219816 -0.161418 0.281629
vertex 0.221056 -0.232483 0.234646
vertex 0.311234 -0.207637 0.234210
endloop
endfacet
facet normal 0.117815 0.962025 -0.246227
outer loop
vertex -0.218315 0.306567 -0.163515
vertex -0.162724 0.336539 -0.019814
vertex -0.039173 0.308491 -0.070284
endloop
endfacet
facet normal 0.380583 0.889155 0.254085
outer loop
vertex 0.346025 0.266792 0.141292
vertex 0.155978 0.373956 0.050942
vertex 0.147264 0.341847 0.176359
endloop
endfacet
facet normal 0.211995 0.405796 0.889037
outer loop
vertex -0.258164 -0.224275 0.191864
vertex -0.317825 -0.298176 0.239823
vertex -0.204565 -0.325429 0.225255
endloop
endfacet
facet normal 0.545237 0.165069 -0.821869
outer loop
vertex 0.307817 -0.031582 -0.213923
vertex 0.235224 0.049007 -0.245896
vertex 0.350879 0.136937 -0.151509
endloop
endfacet
facet normal -0.874791 -0.442118 0.198171
outer loop
vertex -0.536659 0.085884 0.035584
vertex -0.432622 -0.067214 0.153275
vertex -0.487739 0.034003 0.135788
endloop
endfacet
facet normal 0.514069 -0.430482 0.741902
outer loop
vertex -0.378660 0.174597 0.189429
vertex -0.191769 0.275806 0.118656
vertex -0.316534 0.271512 0.202615
endloop
endfacet
facet normal 0.405946 0.891066 0.203002
outer loop
vertex 0.155978 0.373956 0.050942
vertex 0.346025 0.266792 0.141292
vertex 0.306153 0.316193 0.004182
endloop
endfacet
facet normal 0.072567 -0.078949 -0.994234
outer loop
vertex -0.357190 0.400952 -0.181146
vertex -0.218315 0.306567 -0.163515
vertex -0.386168 0.207835 -0.167926
endloop
endfacet
facet normal 0.967684 -0.188768 0.167192
outer loop
vertex 0.440059 0.021822 0.145923
vertex 0.420813 -0.074951 0.148055
vertex 0.442896 -0.060669 0.036364
endloop
endfacet
facet normal -0.562358 0.124411 0.817481
outer loop
vertex -0.484493 0.173194 0.116838
vertex -0.487739 0.034003 0.135788
vertex -0.378660 0.174597 0.189429
endloop
endfacet
facet normal -0.353406 -0.124085 -0.927204
outer loop
vertex -0.275623 0.107161 -0.258563
vertex -0.310407 -0.054086 -0.223726
vertex -0.413467 0.070482 -0.201115
endloop
endfacet
facet normal 0.966629 -0.109772 -0.231470
outer loop
vertex -0.119135 0.663734 -0.419851
vertex -0.136689 0.557678 -0.442862
vertex -0.148449 0.592609 -0.508534
endloop
endfacet
facet normal 0.113248 0.147825 0.982508
outer loop
vertex -0.168579 -0.089517 0.250553
vertex -0.206938 0.144581 0.219753
vertex -0.348475 0.068006 0.247588
endloop
endfacet
facet normal 0.730816 -0.341777 -0.590844
outer loop
vertex 0.409495 -0.128270 -0.032228
vertex 0.307817 -0.031582 -0.213923
vertex 0.410233 0.035896 -0.126278
endloop
endfacet
facet normal -0.720525 -0.587761 -0.367940
outer loop
vertex -0.285560 0.462756 -0.420146
vertex -0.357190 0.400952 -0.181146
vertex -0.402505 0.449747 -0.170355
endloop
endfacet
facet normal -0.797978 -0.602299 -0.021628
outer loop
vertex -0.492360 -0.015810 -0.068389
vertex -0.407077 -0.128684 -0.071625
vertex -0.402898 -0.140180 0.094309
endloop
endfacet
facet normal -0.860982 -0.494934 0.117258
outer loop
vertex -0.536659 0.085884 0.035584
vertex -0.492360 -0.015810 -0.068389
vertex -0.432622 -0.067214 0.153275
endloop
endfacet
facet normal 0.340741 0.610033 0.715371
outer loop
vertex -0.225461 0.636633 -0.346097
vertex -0.119135 0.663734 -0.419851
vertex -0.169344 0.746603 -0.466603
endloop
endfacet
facet normal 0.314598 0.926348 0.207140
outer loop
vertex -0.227567 0.518562 -0.017680
vertex -0.373596 0.558870 0.023842
vertex -0.295238 0.506854 0.137457
endloop
endfacet
facet normal 0.589330 -0.807253 -0.032123
outer loop
vertex -0.298235 0.446841 -0.252733
vertex -0.357190 0.400952 -0.181146
vertex -0.285560 0.462756 -0.420146
endloop
endfacet
facet normal 0.833049 -0.133024 -0.536967
outer loop
vertex 0.409495 -0.128270 -0.032228
vertex 0.299383 -0.158103 -0.195664
vertex 0.307817 -0.031582 -0.213923
endloop
endfacet
facet normal -0.924143 0.099423 -0.368883
outer loop
vertex -0.298844 0.562296 -0.399717
vertex -0.268781 0.528627 -0.484106
vertex -0.402505 0.449747 -0.170355
endloop
endfacet
facet normal 0.896258 0.384039 0.221892
outer loop
vertex 0.346025 0.266792 0.141292
vertex 0.386936 0.136593 0.201389
vertex 0.429871 0.172626 -0.034398
endloop
endfacet
facet normal -0.505195 0.772699 -0.384336
outer loop
vertex -0.230930 -0.276359 0.051354
vertex -0.396070 -0.324775 0.171085
vertex -0.258164 -0.224275 0.191864
endloop
endfacet
facet normal 0.047097 -0.901870 -0.429433
outer loop
vertex 0.052201 -0.210643 -0.256303
vertex 0.232852 -0.236473 -0.182244
vertex -0.012912 -0.227770 -0.227475
endloop
endfacet
facet normal 0.373979 0.713621 0.592355
outer loop
vertex 0.292738 0.223356 0.227262
vertex 0.346025 0.266792 0.141292
vertex 0.147264 0.341847 0.176359
endloop
endfacet
facet normal 0.698622 -0.515371 0.496307
outer loop
vertex -0.378660 0.174597 0.189429
vertex -0.316534 0.271512 0.202615
vertex -0.389724 0.249505 0.282789
endloop
endfacet
facet normal -0.755836 0.291849 -0.586119
outer loop
vertex -0.386168 0.207835 -0.167926
vertex -0.413467 0.070482 -0.201115
vertex -0.505170 0.167025 -0.034786
endloop
endfacet
facet normal -0.303595 -0.764908 -0.568107
outer loop
vertex -0.407077 -0.128684 -0.071625
vertex -0.310407 -0.054086 -0.223726
vertex -0.269149 -0.162837 -0.099349
endloop
endfacet
facet normal 0.247357 -0.625079 -0.740332
outer loop
vertex -0.031131 0.657592 -0.362573
vertex 0.022090 0.679155 -0.362996
vertex 0.032090 0.555274 -0.255059
endloop
endfacet
facet normal 0.803984 -0.002291 0.594646
outer loop
vertex -0.105373 0.589340 -0.081151
vertex 0.050415 0.729260 -0.291243
vertex -0.036113 0.738398 -0.174218
endloop
endfacet
facet normal -0.909411 0.393467 -0.134739
outer loop
vertex -0.353090 0.624830 -0.262797
vertex -0.374001 0.566165 -0.292971
vertex -0.424708 0.500513 -0.142453
endloop
endfacet
facet normal 0.020064 -0.161607 -0.986651
outer loop
vertex 0.468232 -0.160946 -0.025681
vertex 0.373174 -0.325585 -0.000647
vertex 0.409495 -0.128270 -0.032228
endloop
endfacet
facet normal -0.404914 -0.668807 0.623492
outer loop
vertex -0.432622 -0.067214 0.153275
vertex -0.402898 -0.140180 0.094309
vertex -0.257811 -0.179673 0.146170
endloop
endfacet
facet normal -0.778315 0.250501 0.575739
outer loop
vertex -0.153062 -0.205999 0.242915
vertex -0.204565 -0.325429 0.225255
vertex -0.132798 -0.306280 0.313941
endloop
endfacet
facet normal 0.652301 -0.047519 0.756469
outer loop
vertex 0.341118 -0.325175 0.201058
vertex 0.420813 -0.074951 0.148055
vertex 0.311234 -0.207637 0.234210
endloop
endfacet
facet normal 0.553655 -0.241056 0.797094
outer loop
vertex -0.227567 0.518562 -0.017680
vertex -0.199694 0.437124 -0.061669
vertex -0.105373 0.589340 -0.081151
endloop
endfacet
facet normal -0.947931 0.218933 0.231290
outer loop
vertex -0.376164 0.656269 -0.387123
vertex -0.374001 0.566165 -0.292971
vertex -0.353090 0.624830 -0.262797
endloop
endfacet
facet normal 0.443805 -0.895990 -0.015486
outer loop
vertex 0.032090 0.555274 -0.255059
vertex -0.199694 0.437124 -0.061669
vertex -0.234966 0.420825 -0.129496
endloop
endfacet
facet normal -0.006494 -0.999978 0.001000
outer loop
vertex 0.412237 -0.325725 0.113269
vertex 0.341118 -0.325175 0.201058
vertex 0.373174 -0.325585 -0.000647
endloop
endfacet
facet normal -0.029358 0.065122 0.997445
outer loop
vertex 0.063442 0.083650 0.346480
vertex -0.019733 -0.107390 0.356505
vertex 0.095591 -0.073939 0.357715
endloop
endfacet
facet normal -0.661097 -0.740596 0.120285
outer loop
vertex -0.484493 0.173194 0.116838
vertex -0.557112 0.222628 0.022078
vertex -0.505170 0.167025 -0.034786
endloop
endfacet
facet normal -0.142751 -0.857488 0.494304
outer loop
vertex -0.317825 -0.298176 0.239823
vertex -0.396070 -0.324775 0.171085
vertex -0.204565 -0.325429 0.225255
endloop
endfacet
facet normal -0.926622 0.088535 -0.365422
outer loop
vertex -0.247738 0.698105 -0.496404
vertex -0.268781 0.528627 -0.484106
vertex -0.298844 0.562296 -0.399717
endloop
endfacet
facet normal 0.532847 -0.845265 -0.040014
outer loop
vertex -0.285560 0.462756 -0.420146
vertex -0.136689 0.557678 -0.442862
vertex -0.298235 0.446841 -0.252733
endloop
endfacet
facet normal -0.107229 0.681757 0.723678
outer loop
vertex -0.230930 -0.276359 0.051354
vertex -0.267344 -0.240014 0.011719
vertex -0.349691 -0.259939 0.018288
endloop
endfacet
facet normal 0.461836 -0.755252 -0.465083
outer loop
vertex 0.232852 -0.236473 -0.182244
vertex 0.322385 -0.248742 -0.073412
vertex 0.217692 -0.324771 -0.053911
endloop
endfacet
facet normal 0.792322 -0.508688 -0.336843
outer loop
vertex 0.468232 -0.160946 -0.025681
vertex 0.510787 -0.145791 0.051531
vertex 0.373174 -0.325585 -0.000647
endloop
endfacet
facet normal -0.251374 -0.965992 -0.060591
outer loop
vertex -0.407077 -0.128684 -0.071625
vertex -0.269149 -0.162837 -0.099349
vertex -0.402898 -0.140180 0.094309
endloop
endfacet
facet normal 0.703246 -0.125579 0.699768
outer loop
vertex 0.440059 0.021822 0.145923
vertex 0.297315 -0.004706 0.284616
vertex 0.311234 -0.207637 0.234210
endloop
endfacet
facet normal -0.570377 0.716819 0.401049
outer loop
vertex -0.353090 0.624830 -0.262797
vertex -0.424708 0.500513 -0.142453
vertex -0.357363 0.524463 -0.089481
endloop
endfacet
facet normal 0.295960 0.932682 0.206186
outer loop
vertex -0.039173 0.308491 -0.070284
vertex -0.162724 0.336539 -0.019814
vertex -0.059931 0.267365 0.145544
endloop
endfacet
facet normal -0.350424 -0.463619 0.813794
outer loop
vertex -0.153062 -0.205999 0.242915
vertex -0.017016 -0.224638 0.290878
vertex -0.019733 -0.107390 0.356505
endloop
endfacet
facet normal 0.089376 -0.228714 -0.969382
outer loop
vertex -0.310407 -0.054086 -0.223726
vertex -0.275623 0.107161 -0.258563
vertex -0.121033 -0.063682 -0.204001
endloop
endfacet
facet normal 0.218974 0.453888 -0.863734
outer loop
vertex 0.104509 0.258739 -0.172642
vertex 0.246601 0.159801 -0.188610
vertex -0.005034 0.217086 -0.222302
endloop
endfacet
facet normal -0.024379 0.773147 -0.633759
outer loop
vertex 0.176415 0.343794 -0.071646
vertex 0.260688 0.261378 -0.175430
vertex 0.104509 0.258739 -0.172642
endloop
endfacet
facet normal 0.574843 0.277484 -0.769778
outer loop
vertex 0.033647 0.058683 -0.320135
vertex 0.168063 -0.084866 -0.271504
vertex 0.080790 -0.052145 -0.324881
endloop
endfacet
facet normal -0.829282 -0.363811 -0.424186
outer loop
vertex -0.042518 0.566969 -0.262587
vertex -0.097922 0.690854 -0.260525
vertex -0.031131 0.657592 -0.362573
endloop
endfacet
facet normal -0.429113 0.901070 -0.062725
outer loop
vertex -0.385883 -0.302227 -0.071044
vertex -0.267344 -0.240014 0.011719
vertex -0.227611 -0.230109 -0.117809
endloop
endfacet
facet normal 0.416795 -0.769487 -0.483913
outer loop
vertex -0.136689 0.557678 -0.442862
vertex -0.285560 0.462756 -0.420146
vertex -0.148449 0.592609 -0.508534
endloop
endfacet
facet normal -0.585302 -0.130442 0.800254
outer loop
vertex -0.019733 -0.107390 0.356505
vertex -0.168579 -0.089517 0.250553
vertex -0.153062 -0.205999 0.242915
endloop
endfacet
facet normal -0.699296 0.616536 0.361758
outer loop
vertex -0.547479 0.485261 0.002527
vertex -0.531725 0.394095 0.188353
vertex -0.472716 0.505527 0.112509
endloop
endfacet
facet normal -0.338602 -0.412217 0.845829
outer loop
vertex -0.558761 0.263680 0.207050
vertex -0.526662 0.197032 0.187419
vertex -0.476373 0.330277 0.272488
endloop
endfacet
facet normal 0.190181 0.362285 0.912459
outer loop
vertex 0.219980 0.124959 0.297452
vertex 0.063442 0.083650 0.346480
vertex 0.160536 0.041190 0.343101
endloop
endfacet
facet normal 0.586255 0.145369 -0.796978
outer loop
vertex 0.307817 -0.031582 -0.213923
vertex 0.350879 0.136937 -0.151509
vertex 0.410233 0.035896 -0.126278
endloop
endfacet
facet normal -0.766846 -0.366904 -0.526620
outer loop
vertex -0.298844 0.562296 -0.399717
vertex -0.402505 0.449747 -0.170355
vertex -0.374001 0.566165 -0.292971
endloop
endfacet
facet normal 0.396717 -0.213207 0.892837
outer loop
vertex 0.297315 -0.004706 0.284616
vertex 0.095591 -0.073939 0.357715
vertex 0.219816 -0.161418 0.281629
endloop
endfacet
facet normal 0.639082 -0.305676 0.705788
outer loop
vertex -0.105373 0.589340 -0.081151
vertex -0.199694 0.437124 -0.061669
vertex 0.023758 0.573921 -0.204755
endloop
endfacet
facet normal 0.819434 0.233723 0.523356
outer loop
vertex -0.357363 0.524463 -0.089481
vertex -0.283499 0.513179 -0.200092
vertex -0.225461 0.636633 -0.346097
endloop
endfacet
facet normal -0.022368 0.917275 0.397627
outer loop
vertex -0.162724 0.336539 -0.019814
vertex -0.191769 0.275806 0.118656
vertex -0.059931 0.267365 0.145544
endloop
endfacet
facet normal 0.683459 0.262058 0.681329
outer loop
vertex 0.023758 0.573921 -0.204755
vertex 0.050415 0.729260 -0.291243
vertex -0.105373 0.589340 -0.081151
endloop
endfacet
facet normal 0.662276 -0.235740 -0.711208
outer loop
vertex 0.409495 -0.128270 -0.032228
vertex 0.373174 -0.325585 -0.000647
vertex 0.322385 -0.248742 -0.073412
endloop
endfacet
facet normal -0.949179 -0.135115 0.284259
outer loop
vertex -0.531725 0.394095 0.188353
vertex -0.570441 0.298688 0.013726
vertex -0.557112 0.222628 0.022078
endloop
endfacet
facet normal -0.243851 -0.968244 -0.055132
outer loop
vertex -0.269149 -0.162837 -0.099349
vertex -0.257811 -0.179673 0.146170
vertex -0.402898 -0.140180 0.094309
endloop
endfacet
facet normal 0.921632 0.321728 0.216990
outer loop
vertex 0.386936 0.136593 0.201389
vertex 0.440059 0.021822 0.145923
vertex 0.429871 0.172626 -0.034398
endloop
endfacet
facet normal -0.599161 0.742698 0.299008
outer loop
vertex -0.353090 0.624830 -0.262797
vertex -0.312738 0.723581 -0.427225
vertex -0.376164 0.656269 -0.387123
endloop
endfacet
facet normal 0.304220 0.664371 0.682687
outer loop
vertex -0.283499 0.513179 -0.200092
vertex -0.119135 0.663734 -0.419851
vertex -0.225461 0.636633 -0.346097
endloop
endfacet
facet normal -0.148786 -0.960422 0.235483
outer loop
vertex -0.378660 0.174597 0.189429
vertex -0.526662 0.197032 0.187419
vertex -0.484493 0.173194 0.116838
endloop
endfacet
facet normal 0.302645 -0.384199 -0.872237
outer loop
vertex 0.168063 -0.084866 -0.271504
vertex 0.232852 -0.236473 -0.182244
vertex 0.052201 -0.210643 -0.256303
endloop
endfacet
facet normal -0.101840 -0.487675 0.867065
outer loop
vertex -0.019733 -0.107390 0.356505
vertex -0.017016 -0.224638 0.290878
vertex 0.135967 -0.275443 0.280272
endloop
endfacet
facet normal -0.070609 0.887642 0.455089
outer loop
vertex -0.373596 0.558870 0.023842
vertex -0.472716 0.505527 0.112509
vertex -0.295238 0.506854 0.137457
endloop
endfacet
facet normal -0.340921 -0.576840 0.742313
outer loop
vertex -0.432622 -0.067214 0.153275
vertex -0.257811 -0.179673 0.146170
vertex -0.345800 -0.019255 0.230417
endloop
endfacet
facet normal 0.478062 0.200472 0.855142
outer loop
vertex 0.219980 0.124959 0.297452
vertex 0.297315 -0.004706 0.284616
vertex 0.386936 0.136593 0.201389
endloop
endfacet
facet normal -0.532845 -0.845578 -0.032767
outer loop
vertex -0.526662 0.197032 0.187419
vertex -0.557112 0.222628 0.022078
vertex -0.484493 0.173194 0.116838
endloop
endfacet
facet normal 0.435602 0.172342 0.883487
outer loop
vertex 0.219980 0.124959 0.297452
vertex 0.160536 0.041190 0.343101
vertex 0.297315 -0.004706 0.284616
endloop
endfacet
facet normal 0.800324 -0.532731 -0.275098
outer loop
vertex 0.510787 -0.145791 0.051531
vertex 0.412237 -0.325725 0.113269
vertex 0.373174 -0.325585 -0.000647
endloop
endfacet
facet normal -0.373711 -0.034544 -0.926902
outer loop
vertex -0.402505 0.449747 -0.170355
vertex -0.386168 0.207835 -0.167926
vertex -0.501705 0.248846 -0.122872
endloop
endfacet
facet normal 0.370242 0.032169 -0.928378
outer loop
vertex 0.307817 -0.031582 -0.213923
vertex 0.168063 -0.084866 -0.271504
vertex 0.033647 0.058683 -0.320135
endloop
endfacet
facet normal -0.001306 0.316166 -0.948703
outer loop
vertex -0.005034 0.217086 -0.222302
vertex -0.275623 0.107161 -0.258563
vertex -0.157804 0.245813 -0.212518
endloop
endfacet
facet normal 0.367215 0.587651 0.720985
outer loop
vertex -0.261022 0.549996 -0.026261
vertex -0.373596 0.558870 0.023842
vertex -0.227567 0.518562 -0.017680
endloop
endfacet
facet normal -0.126689 -0.780960 0.611597
outer loop
vertex -0.378660 0.174597 0.189429
vertex -0.389724 0.249505 0.282789
vertex -0.526662 0.197032 0.187419
endloop
endfacet
facet normal -0.997644 0.047675 0.049343
outer loop
vertex -0.267344 -0.240014 0.011719
vertex -0.257811 -0.179673 0.146170
vertex -0.269149 -0.162837 -0.099349
endloop
endfacet
facet normal 0.079336 0.672515 -0.735819
outer loop
vertex -0.157804 0.245813 -0.212518
vertex -0.218315 0.306567 -0.163515
vertex -0.005034 0.217086 -0.222302
endloop
endfacet
facet normal 0.168934 -0.016537 -0.985489
outer loop
vertex -0.012912 -0.227770 -0.227475
vertex 0.216778 -0.325014 -0.186469
vertex -0.107584 -0.325415 -0.242065
endloop
endfacet
facet normal 0.518672 0.068347 -0.852237
outer loop
vertex -0.267680 0.527903 -0.140819
vertex -0.234966 0.420825 -0.129496
vertex -0.283496 0.410777 -0.159838
endloop
endfacet
facet normal -0.869807 0.115261 -0.479740
outer loop
vertex -0.524959 0.403086 -0.043654
vertex -0.501705 0.248846 -0.122872
vertex -0.570441 0.298688 0.013726
endloop
endfacet
facet normal 0.556821 -0.267810 0.786275
outer loop
vertex 0.135967 -0.275443 0.280272
vertex 0.133160 -0.325413 0.265240
vertex 0.221056 -0.232483 0.234646
endloop
endfacet
facet normal -0.587657 -0.183875 0.787939
outer loop
vertex -0.487739 0.034003 0.135788
vertex -0.432622 -0.067214 0.153275
vertex -0.348475 0.068006 0.247588
endloop
endfacet
facet normal 0.178860 0.310921 0.933454
outer loop
vertex -0.389724 0.249505 0.282789
vertex -0.399263 0.452171 0.217111
vertex -0.476373 0.330277 0.272488
endloop
endfacet
facet normal 0.242816 0.836863 0.490613
outer loop
vertex -0.353090 0.624830 -0.262797
vertex -0.357363 0.524463 -0.089481
vertex -0.225461 0.636633 -0.346097
endloop
endfacet
facet normal 0.002546 -0.999774 -0.021084
outer loop
vertex -0.204565 -0.325429 0.225255
vertex -0.396070 -0.324775 0.171085
vertex 0.133160 -0.325413 0.265240
endloop
endfacet
facet normal 0.111862 0.447318 -0.887352
outer loop
vertex 0.246601 0.159801 -0.188610
vertex 0.235224 0.049007 -0.245896
vertex 0.130058 0.121082 -0.222820
endloop
endfacet
facet normal 0.355823 -0.272294 0.894005
outer loop
vertex 0.135967 -0.275443 0.280272
vertex 0.219816 -0.161418 0.281629
vertex 0.095591 -0.073939 0.357715
endloop
endfacet
facet normal 0.281875 0.790410 0.543875
outer loop
vertex -0.353090 0.624830 -0.262797
vertex -0.225461 0.636633 -0.346097
vertex -0.312738 0.723581 -0.427225
endloop
endfacet
facet normal -0.721307 0.362420 -0.590227
outer loop
vertex -0.031131 0.657592 -0.362573
vertex -0.097922 0.690854 -0.260525
vertex -0.020370 0.745809 -0.321555
endloop
endfacet
facet normal 0.074407 -0.253144 0.964563
outer loop
vertex 0.221056 -0.232483 0.234646
vertex 0.341118 -0.325175 0.201058
vertex 0.311234 -0.207637 0.234210
endloop
endfacet
facet normal 0.885512 0.246337 -0.393938
outer loop
vertex -0.234966 0.420825 -0.129496
vertex -0.162724 0.336539 -0.019814
vertex -0.218315 0.306567 -0.163515
endloop
endfacet
facet normal 0.643359 -0.676969 0.357495
outer loop
vertex 0.023758 0.573921 -0.204755
vertex -0.199694 0.437124 -0.061669
vertex 0.032090 0.555274 -0.255059
endloop
endfacet
facet normal 0.980374 -0.064515 0.186291
outer loop
vertex 0.050415 0.729260 -0.291243
vertex 0.023758 0.573921 -0.204755
vertex 0.032090 0.555274 -0.255059
endloop
endfacet
endsolid Exported from Blender-3.6.5
